<svg xmlns="http://www.w3.org/2000/svg"
    xmlns:xlink="http://www.w3.org/1999/xlink" version="1.1" x="0px" y="0px" viewBox="0 0 60 60" enable-background="new 0 0 60 60" xml:space="preserve">
    <g>
        <!-- 
            - "currentColor" can be addressed by the "color" attribute and can be set for fill or stroke.
            - "current" for fill can be addressed by the "fill" attribute, if you want to distinguish between fill and stroke.
            - "current" for stroke can be addressed by the "stroke" attribute -->
        <path fill="currentColor" stroke="currentColor" d="M48.9472656,44.5224609c0-2.1884766-1.046875-7.65625-5.0087891-12.6894531   c-3.9990234-5.0791016-5.8808594-13.5576172-5.8994141-13.6425781c-0.3388672-1.5537109-0.9550781-3.6201172-2.4003906-3.6201172   c-1.453125,0-2.0546875,2.0771484-2.3808594,3.640625c-0.0058594,0.0253906-0.1816406,0.8476563-0.5214844,2.1142578   c-0.2675781-0.3847656-0.5390625-0.7666016-0.8291016-1.1337891c-3.9980469-5.078125-5.8798828-13.5576172-5.8984375-13.6416016   c-0.3398438-1.5585938-1.0009766-3.6347656-2.4072266-3.6210938c-1.4482422,0.0058594-2.0488281,2.0800781-2.375,3.6416016   c-0.0175781,0.0830078-1.7988281,8.4794922-5.2675781,13.4658203c-3.6357422,5.2265625-4.9648438,8.7412109-4.90625,12.9697266   c0.0517578,3.6474609,0.1923828,13.1855469,12.0625,13.5175781c0.2832031,5.0576172,2.5839844,12.5488281,13.7285156,12.5488281   l0.2519531-0.0009766c7.6035156-0.0771484,11.9228516-4.9638672,11.8525391-13.4072266L48.9472656,44.5224609z    M12.8603516,31.9814453c-0.0537109-3.8056641,1.1884766-7.0351563,4.5820313-11.9130859   c3.6767578-5.2861328,5.4785156-13.7705078,5.5527344-14.1298828c0.2265625-1.0839844,0.4580078-1.6640625,0.6152344-1.9628906   c0.1611328,0.2978516,0.3964844,0.8759766,0.6318359,1.9589844c0.0791016,0.3632813,1.9873047,8.9658203,6.2460938,14.375   c0.5761719,0.7314453,1.1005859,1.5078125,1.5820313,2.3027344c-0.8789063,2.8173828-2.2402344,6.4199219-4.0810547,9.0654297   c-3.3613281,4.8339844-4.7490234,8.2041016-4.8925781,12.0283203   C14.2626953,43.4296875,12.9394531,37.6591797,12.8603516,31.9814453z M37.078125,56.2646484L36.84375,56.265625   c-9.7441406,0-11.8789063-6.3310547-11.953125-11.6425781c-0.0537109-3.8066406,1.1884766-7.0351563,4.5830078-11.9130859   c3.6757813-5.2861328,5.4775391-13.7705078,5.5517578-14.1298828c0.2265625-1.0849609,0.4580078-1.6640625,0.6162109-1.9628906   c0.1601563,0.2978516,0.3955078,0.8759766,0.6318359,1.9580078c0.0791016,0.3642578,1.9863281,8.9658203,6.2441406,14.3740234   c4.5703125,5.8056641,4.6230469,11.515625,4.6230469,11.5732422l0.0009766,0.1572266   C47.1767578,48.9677734,45.9169922,56.1757813,37.078125,56.2646484z"/>
        <path fill="current" stroke="current" d="M30.8798828,50.9316406c-0.3242188-0.3779297-0.8955078-0.4208984-1.2744141-0.0986328   c-0.3779297,0.3242188-0.4238281,0.8945313-0.0986328,1.2744141c0.6816406,0.796875,1.5,1.5332031,2.4306641,2.1875   c0.1582031,0.1123047,0.3398438,0.1650391,0.5185547,0.1650391c0.2841797,0,0.5644531-0.1328125,0.7392578-0.3837891   c0.2880859-0.4072266,0.1904297-0.9707031-0.21875-1.2578125C32.1699219,52.25,31.4638672,51.6152344,30.8798828,50.9316406z"/>
        <path fill="current" stroke="current" d="M29.8056641,39.0478516c0.2177734-0.4482422,0.0332031-0.9892578-0.4140625-1.2089844   c-0.4482422-0.2197266-0.9882813-0.0351563-1.2080078,0.4121094c-0.1015625,0.2070313-2.4677734,5.1142578-0.7773438,10.1630859   c0.1259766,0.3789063,0.4785156,0.6162109,0.8564453,0.6162109c0.0957031,0,0.1914063-0.0146484,0.2871094-0.0458984   c0.4726563-0.1582031,0.7285156-0.6708984,0.5693359-1.1435547C27.6699219,43.5097656,29.7841797,39.0917969,29.8056641,39.0478516   z"/>
        <path fill="current" stroke="current" d="M18.8486328,38.2910156c-0.3232422-0.3779297-0.8955078-0.421875-1.2734375-0.0986328   c-0.3789063,0.3232422-0.4238281,0.8945313-0.0986328,1.2734375c0.6816406,0.796875,1.4990234,1.5332031,2.4306641,2.1884766   c0.1572266,0.1113281,0.3388672,0.1650391,0.5185547,0.1650391c0.2841797,0,0.5634766-0.1337891,0.7392578-0.3837891   c0.2871094-0.4082031,0.1894531-0.9716797-0.21875-1.2587891C20.1386719,39.609375,19.4326172,38.9736328,18.8486328,38.2910156z"/>
        <path fill="current" stroke="current" d="M17.7753906,26.40625c0.2177734-0.4482422,0.0322266-0.9882813-0.4150391-1.2080078   c-0.4492188-0.2207031-0.9882813-0.0361328-1.2080078,0.4111328c-0.1015625,0.2070313-2.4677734,5.1142578-0.7773438,10.1630859   c0.1269531,0.3789063,0.4794922,0.6171875,0.8574219,0.6171875c0.0947266,0,0.1914063-0.015625,0.2861328-0.046875   c0.4736328-0.1582031,0.7294922-0.6708984,0.5703125-1.1435547C15.6396484,30.8681641,17.7529297,26.4501953,17.7753906,26.40625z"/>
    </g>
</svg>