<svg width="20" height="20" viewBox="0 0 20 20" fill="none"
    xmlns="http://www.w3.org/2000/svg">
    <animateTransform attributeName="transform" type="rotate" from="0" to="360" dur="0.7s" repeatCount="indefinite"/>
    <path d="M20 10C20 11.9778 19.4135 13.9112 18.3147 15.5557C17.2159 17.2002 15.6541 18.4819 13.8268 19.2388C11.9996 19.9957 9.98891 20.1937 8.0491 19.8079C6.10929 19.422 4.32746 18.4696 2.92893 17.0711C1.53041 15.6725 0.577999 13.8907 0.192147 11.9509C-0.193705 10.0111 0.00432836 8.00043 0.761205 6.17317C1.51808 4.3459 2.79981 2.78412 4.4443 1.6853C6.08879 0.58649 8.02219 -2.35852e-08 10 0L10 3.40772C8.69617 3.40772 7.42162 3.79435 6.33752 4.51872C5.25343 5.24309 4.40848 6.27266 3.90952 7.47724C3.41057 8.68182 3.28002 10.0073 3.53439 11.2861C3.78875 12.5649 4.4166 13.7395 5.33855 14.6614C6.2605 15.5834 7.43513 16.2113 8.71391 16.4656C9.99269 16.72 11.3182 16.5894 12.5228 16.0905C13.7273 15.5915 14.7569 14.7466 15.4813 13.6625C16.2057 12.5784 16.5923 11.3038 16.5923 10H20Z" fill="#490B66" />
</svg>
